<?xml version="1.0" encoding="utf-8"?>
<!-- Generator: Adobe Illustrator 16.0.0, SVG Export Plug-In . SVG Version: 6.00 Build 0)  -->
<!DOCTYPE svg PUBLIC "-//W3C//DTD SVG 1.1//EN" "http://www.w3.org/Graphics/SVG/1.1/DTD/svg11.dtd">
<svg version="1.1" id="Layer_1" xmlns="http://www.w3.org/2000/svg" xmlns:xlink="http://www.w3.org/1999/xlink" x="0px" y="0px"
	 width="16px" height="16px" viewBox="0 0 16 16" enable-background="new 0 0 16 16" xml:space="preserve">
<g>
	<g>
		<g>
			<path fill="#FFFFFF" d="M11.24,7.822c0,1.789-1.451,3.24-3.24,3.24s-3.239-1.451-3.239-3.24c0-0.405,0.077-0.791,0.212-1.148H1
				V11.5C1,13.433,2.567,15,4.5,15h7c1.934,0,3.5-1.566,3.5-3.5V6.674h-3.973C11.162,7.031,11.24,7.417,11.24,7.822z"/>
			<circle fill="#FFFFFF" cx="8" cy="7.822" r="1.944"/>
			<path fill="#FFFFFF" d="M11.5,1H4.685v3.649H3.919V1.052C3.653,1.097,3.396,1.168,3.154,1.269v3.38H2.388V1.713
				C1.546,2.352,1,3.361,1,4.5v1.024h4.715C6.301,4.942,7.108,4.581,8,4.581s1.699,0.361,2.285,0.944H15V4.5
				C15,2.568,13.434,1,11.5,1z M13.064,4.31c0,0.216-0.177,0.394-0.394,0.394H11.49c-0.217,0-0.394-0.176-0.394-0.394V3.129
				c0-0.216,0.176-0.394,0.394-0.394h1.181c0.216,0,0.394,0.176,0.394,0.394V4.31z"/>
		</g>
	</g>
</g>
</svg>
