<?xml version="1.0" encoding="utf-8"?>
<!-- Generator: Adobe Illustrator 16.0.0, SVG Export Plug-In . SVG Version: 6.00 Build 0)  -->
<!DOCTYPE svg PUBLIC "-//W3C//DTD SVG 1.1//EN" "http://www.w3.org/Graphics/SVG/1.1/DTD/svg11.dtd">
<svg version="1.1" id="Layer_1" xmlns="http://www.w3.org/2000/svg" xmlns:xlink="http://www.w3.org/1999/xlink" x="0px" y="0px"
	 width="261px" height="29px" viewBox="0 0 261 29" enable-background="new 0 0 261 29" xml:space="preserve">
<g>
	<g>
		<g>
			<path fill="#FFFFFF" d="M97.791,8.845v1.557H84.608V8.845H97.791z"/>
			<g>
				<path fill="#FFFFFF" d="M5.419,9.421L1.731,4.24h2.181l2.62,3.78l2.633-3.78h2.122l-3.67,5.15l3.821,5.389H9.256l-2.77-3.991
					l-2.783,3.991H1.579L5.419,9.421z"/>
				<path fill="#FFFFFF" d="M22.507,4.24h1.851v10.539h-1.851V4.24z"/>
				<path fill="#FFFFFF" d="M62.834,1v1.395h-2.662V1H62.834z"/>
				<path fill="#FFFFFF" d="M36.216,4.24h1.718l5.644,7.288V4.24h1.821v10.539h-1.55L38.04,7.282v7.498h-1.824V4.24z"/>
				<path fill="#FFFFFF" d="M56.994,10.308V4.24h1.854v5.992c0,1.959,1.006,3.01,2.662,3.01c1.642,0,2.648-0.993,2.648-2.935V4.24
					h1.854v5.979c0,3.145-1.778,4.725-4.532,4.725C58.743,14.944,56.994,13.364,56.994,10.308z"/>
			</g>
		</g>
	</g>
	<g>
		<path fill="#FFFFFF" d="M115.336,3.596h2.681v3.771c0.13-0.146,0.252-0.224,0.319-0.305c0.522-0.413,1.265-0.667,1.974-0.667
			c1.797,0,3.131,1.442,3.131,3.399c0,2.092-1.388,3.559-3.343,3.559c-1.041,0-1.63-0.308-2.455-1.265l-0.452,1.121h-0.521V5.051
			c0-0.6-0.052-0.682-0.464-0.682h-0.869V3.596z M117.831,10.006c0,1.599,0.839,2.652,2.105,2.652c1.292,0,2.117-1.106,2.117-2.826
			c0-1.597-0.84-2.704-2.079-2.704C118.67,7.129,117.831,8.249,117.831,10.006"/>
		<path fill="#FFFFFF" d="M128.603,6.504c2.119,0,3.613,1.437,3.613,3.449c0,2.078-1.452,3.477-3.613,3.477
			c-2.173,0-3.64-1.371-3.64-3.45C124.963,7.941,126.47,6.504,128.603,6.504 M126.418,9.98c0,1.625,0.892,2.747,2.185,2.747
			c1.294,0,2.186-1.122,2.186-2.747c0-1.612-0.892-2.746-2.186-2.746C127.31,7.234,126.418,8.368,126.418,9.98"/>
		<path fill="#FFFFFF" d="M133.474,6.675c0.743-0.042,1.066-0.171,1.397-0.574c0.267-0.358,0.386-0.76,0.467-1.665h0.626v2.238
			h1.879v0.719h-1.879v3.651c0,0.603,0.013,0.801,0.095,1.028c0.105,0.28,0.412,0.49,0.718,0.49c0.521,0,0.839-0.479,0.839-1.29
			v-0.441h0.667v0.548c0,1.278-0.64,1.972-1.773,1.972c-0.68,0-1.267-0.295-1.585-0.759c-0.241-0.387-0.306-0.692-0.306-1.56V7.419
			h-1.146V6.675z"/>
		<path fill="#FFFFFF" d="M141.432,8.366c0,0.443-0.374,0.79-0.841,0.79c-0.479,0-0.881-0.413-0.881-0.931
			c0-0.989,1.36-1.737,3.134-1.737c1.799,0,2.73,0.789,2.73,2.28v2.65c0,0.615,0,0.789,0.056,0.906
			c0.039,0.162,0.198,0.31,0.347,0.31c0.249,0,0.386-0.427,0.413-1.269c0-0.146,0-0.347,0.012-0.637h0.692
			c0.014,0.149,0.014,0.277,0.014,0.413c0,0.308-0.014,0.596-0.055,0.881c-0.091,0.958-0.52,1.382-1.357,1.382
			c-0.44,0-0.853-0.161-1.082-0.438c-0.143-0.159-0.197-0.308-0.304-0.693c-0.254,0.346-0.36,0.412-0.773,0.652
			c-0.6,0.345-1.215,0.507-1.882,0.507c-1.319,0-2.17-0.721-2.17-1.827c0-0.305,0.08-0.587,0.2-0.826
			c0.28-0.452,0.759-0.692,1.839-0.891c0.986-0.188,1.559-0.295,1.92-0.401c0.597-0.173,0.827-0.466,0.827-1.025
			c0-0.812-0.721-1.319-1.895-1.319c-0.145,0-0.321,0.011-0.494,0.039c-0.479,0.082-0.636,0.122-1.065,0.374
			C141.259,7.836,141.432,8.049,141.432,8.366 M144.229,9.846c-0.531,0.2-0.64,0.226-1.4,0.401
			c-1.546,0.358-1.919,0.629-1.919,1.332c0,0.694,0.522,1.119,1.334,1.119c0.479,0,1.064-0.228,1.455-0.585
			c0.385-0.36,0.531-0.799,0.531-1.547V9.846z"/>
		<path fill="#FFFFFF" d="M148.153,6.675h2.704v0.88c0.148-0.173,0.267-0.292,0.36-0.374c0.467-0.413,1.251-0.693,1.986-0.693
			c0.785,0,1.558,0.321,1.972,0.826c0.333,0.415,0.439,0.855,0.439,1.826v2.613c0,0.388,0.013,0.454,0.107,0.571
			c0.066,0.096,0.147,0.123,0.439,0.123h0.599v0.759h-3.676v-0.759h0.743c0.229,0,0.296-0.026,0.35-0.123
			c0.066-0.102,0.092-0.332,0.092-0.571V9.126c0-0.838-0.026-0.973-0.28-1.291c-0.252-0.321-0.719-0.533-1.171-0.533
			c-0.479,0-0.988,0.212-1.345,0.571c-0.427,0.415-0.615,0.894-0.615,1.642v2.236v0.36c0.012,0.067,0.027,0.145,0.066,0.211
			c0.053,0.096,0.147,0.123,0.376,0.123h0.746v0.759h-3.893v-0.759h0.707c0.572,0,0.651-0.106,0.651-0.654v-0.04v-0.545V8.115
			c0-0.387-0.011-0.452-0.118-0.56c-0.081-0.091-0.173-0.106-0.497-0.106h-0.743V6.675z"/>
		<path fill="#FFFFFF" d="M157.82,12.446h0.743c0.509,0,0.615-0.106,0.615-0.624v-0.07l-0.012-0.439v-3.2V7.768
			c0-0.24-0.148-0.319-0.521-0.319h-0.732V6.675h2.583v5.077c0,0.427,0.027,0.454,0.082,0.573c0.052,0.094,0.132,0.121,0.373,0.121
			h0.718v0.757h-3.85V12.446z M159.646,3.409c0.559,0,0.996,0.427,0.996,0.974c0,0.533-0.423,0.988-0.958,0.988
			c-0.534,0-0.973-0.456-0.973-1.002C158.711,3.836,159.136,3.409,159.646,3.409"/>
		<path fill="#FFFFFF" d="M168.163,7.635c-0.279-0.308-0.852-0.494-1.479-0.494c-1.491,0-2.373,0.933-2.373,2.507
			c0,1.878,0.921,3.065,2.373,3.065c0.64,0,1.2-0.254,1.586-0.748c0.279-0.362,0.388-0.667,0.494-1.401h0.64
			c-0.095,1.002-0.227,1.417-0.707,1.946c-0.546,0.643-1.295,0.935-2.307,0.935c-2.066,0-3.476-1.374-3.476-3.402
			c0-2.091,1.491-3.567,3.555-3.567c1.6,0,2.84,0.915,2.84,2.103c0,0.616-0.36,1.027-0.919,1.027c-0.469,0-0.88-0.386-0.88-0.865
			c0-0.439,0.269-0.718,0.799-0.891C168.245,7.742,168.191,7.677,168.163,7.635"/>
		<path fill="#FFFFFF" d="M172.646,8.366c0,0.443-0.373,0.79-0.84,0.79c-0.479,0-0.88-0.413-0.88-0.931
			c0-0.989,1.359-1.737,3.132-1.737c1.798,0,2.732,0.789,2.732,2.28v2.65c0,0.615,0,0.789,0.054,0.906
			c0.04,0.162,0.201,0.31,0.347,0.31c0.25,0,0.387-0.427,0.414-1.269c0-0.146,0-0.347,0.011-0.637h0.692
			c0.015,0.149,0.015,0.277,0.015,0.413c0,0.308-0.015,0.596-0.053,0.881c-0.094,0.958-0.522,1.382-1.359,1.382
			c-0.44,0-0.852-0.161-1.081-0.438c-0.145-0.159-0.198-0.308-0.305-0.693c-0.255,0.346-0.359,0.412-0.772,0.652
			c-0.603,0.345-1.215,0.507-1.881,0.507c-1.319,0-2.171-0.721-2.171-1.827c0-0.305,0.079-0.587,0.201-0.826
			c0.278-0.452,0.757-0.692,1.838-0.891c0.985-0.188,1.559-0.295,1.919-0.401c0.597-0.173,0.827-0.466,0.827-1.025
			c0-0.812-0.722-1.319-1.893-1.319c-0.147,0-0.322,0.011-0.494,0.039c-0.479,0.082-0.637,0.122-1.068,0.374
			C172.473,7.836,172.646,8.049,172.646,8.366 M175.443,9.846c-0.531,0.2-0.639,0.226-1.399,0.401
			c-1.546,0.358-1.918,0.629-1.918,1.332c0,0.694,0.521,1.119,1.333,1.119c0.479,0,1.064-0.228,1.454-0.585
			c0.385-0.36,0.531-0.799,0.531-1.547V9.846z"/>
		<path fill="#FFFFFF" d="M179.275,6.675h2.703v1.04c0.133-0.173,0.243-0.321,0.349-0.439c0.479-0.601,0.919-0.842,1.491-0.842
			c0.788,0,1.398,0.521,1.398,1.199c0,0.521-0.343,0.895-0.797,0.895c-0.44,0-0.773-0.333-0.773-0.773
			c0-0.279,0.093-0.452,0.387-0.693c-0.148-0.025-0.269-0.025-0.359-0.025c-0.227,0-0.442,0.093-0.707,0.292
			c-0.693,0.545-0.988,1.279-0.988,2.493v1.931c0,0.373,0.013,0.454,0.149,0.571c0.119,0.096,0.239,0.123,0.692,0.123h0.747v0.759
			h-4.264v-0.759h0.68c0.558,0,0.664-0.106,0.664-0.625v-0.068L180.62,11.3V8.1V7.766c-0.013-0.079-0.042-0.145-0.094-0.224
			c-0.054-0.052-0.134-0.079-0.212-0.094h-0.404h-0.636V6.675z"/>
		<path fill="#FFFFFF" d="M189.659,6.504c2.119,0,3.612,1.437,3.612,3.449c0,2.078-1.452,3.477-3.612,3.477
			c-2.174,0-3.638-1.371-3.638-3.45C186.021,7.941,187.525,6.504,189.659,6.504 M187.473,9.98c0,1.625,0.892,2.747,2.186,2.747
			c1.293,0,2.186-1.122,2.186-2.747c0-1.612-0.893-2.746-2.186-2.746C188.365,7.234,187.473,8.368,187.473,9.98"/>
		<path fill="#FFFFFF" d="M194.622,12.446h0.744c0.308,0,0.388-0.011,0.496-0.123c0.158-0.128,0.199-0.251,0.199-0.571v-0.601V8.075
			c0-0.399-0.014-0.453-0.123-0.573c-0.091-0.093-0.196-0.12-0.572-0.12h-0.731V6.675h2.774v0.867
			c0.479-0.536,0.703-0.708,1.211-0.922c0.374-0.157,0.774-0.239,1.147-0.239c0.361,0,0.719,0.082,1.051,0.213
			c0.534,0.228,0.734,0.443,1.04,1.069c0.175-0.188,0.349-0.36,0.494-0.494c0.572-0.549,1.251-0.853,1.974-0.853
			c0.733,0,1.53,0.346,1.917,0.838c0.292,0.389,0.452,1.056,0.452,1.828v2.771c0,0.587,0.095,0.694,0.537,0.694h0.731v0.759h-3.759
			v-0.759h0.762c0.21,0,0.263-0.026,0.318-0.123c0.066-0.102,0.081-0.199,0.081-0.571V9.008c0-0.669-0.042-0.908-0.255-1.201
			c-0.239-0.388-0.667-0.587-1.146-0.587c-0.267,0-0.572,0.082-0.827,0.199c-0.212,0.107-0.413,0.256-0.585,0.443
			c-0.388,0.413-0.519,0.773-0.519,1.452v2.438c0,0.612,0.038,0.694,0.385,0.694h0.734v0.759h-3.598v-0.759h0.731
			c0.348,0,0.415-0.106,0.415-0.694V9.1c0-0.676-0.055-0.906-0.255-1.226c-0.24-0.398-0.679-0.638-1.146-0.638
			c-0.505,0-1.012,0.266-1.399,0.719c-0.36,0.454-0.491,0.826-0.491,1.518v2.28c0,0.601,0.037,0.694,0.373,0.694h0.718v0.759h-3.877
			V12.446z"/>
		<path fill="#FFFFFF" d="M211.113,8.366c0,0.443-0.372,0.79-0.839,0.79c-0.479,0-0.882-0.413-0.882-0.931
			c0-0.989,1.362-1.737,3.137-1.737c1.797,0,2.728,0.789,2.728,2.28v2.65c0,0.615,0,0.789,0.055,0.906
			c0.04,0.162,0.2,0.31,0.348,0.31c0.251,0,0.385-0.427,0.413-1.269c0-0.146,0-0.345,0.012-0.637h0.691
			c0.018,0.149,0.018,0.277,0.018,0.413c0,0.308-0.018,0.596-0.055,0.881c-0.094,0.958-0.52,1.382-1.36,1.382
			c-0.44,0-0.853-0.161-1.08-0.438c-0.145-0.159-0.198-0.308-0.305-0.693c-0.255,0.346-0.36,0.412-0.773,0.652
			c-0.6,0.345-1.212,0.507-1.879,0.507c-1.321,0-2.173-0.721-2.173-1.827c0-0.305,0.08-0.585,0.2-0.826
			c0.279-0.452,0.759-0.692,1.84-0.891c0.985-0.188,1.558-0.295,1.918-0.401c0.6-0.173,0.828-0.466,0.828-1.027
			c0-0.81-0.722-1.317-1.893-1.317c-0.147,0-0.322,0.011-0.496,0.039c-0.479,0.082-0.637,0.122-1.063,0.374
			C210.94,7.836,211.113,8.049,211.113,8.366 M213.911,9.846c-0.531,0.2-0.64,0.226-1.4,0.401c-1.543,0.358-1.919,0.629-1.919,1.332
			c0,0.694,0.521,1.119,1.335,1.119c0.479,0,1.065-0.226,1.453-0.585c0.386-0.36,0.531-0.799,0.531-1.547V9.846z M213.845,3.717
			l0.614,0.799l-2.291,1.454l-0.36-0.535L213.845,3.717z"/>
		<path fill="#FFFFFF" d="M217.742,6.675c0.744-0.042,1.066-0.171,1.398-0.574c0.267-0.358,0.385-0.76,0.467-1.665h0.626v2.238h1.88
			v0.719h-1.88v3.651c0,0.603,0.014,0.801,0.095,1.028c0.106,0.28,0.413,0.49,0.719,0.49c0.521,0,0.838-0.479,0.838-1.29v-0.441
			h0.667v0.548c0,1.278-0.64,1.972-1.773,1.972c-0.681,0-1.267-0.295-1.585-0.759c-0.241-0.387-0.306-0.692-0.306-1.56V7.419h-1.146
			V6.675z"/>
		<path fill="#FFFFFF" d="M223.611,12.446h0.743c0.508,0,0.615-0.106,0.615-0.624v-0.07l-0.013-0.439v-3.2V7.768
			c0-0.24-0.148-0.319-0.52-0.319h-0.732V6.675h2.583v5.077c0,0.427,0.028,0.454,0.08,0.573c0.055,0.094,0.135,0.121,0.374,0.121
			h0.72v0.757h-3.85V12.446z M225.436,3.409c0.56,0,0.997,0.427,0.997,0.974c0,0.533-0.425,0.988-0.958,0.988
			c-0.534,0-0.973-0.456-0.973-1.002C224.502,3.836,224.927,3.409,225.436,3.409"/>
		<path fill="#FFFFFF" d="M233.955,7.635c-0.28-0.308-0.853-0.494-1.48-0.494c-1.492,0-2.373,0.933-2.373,2.507
			c0,1.878,0.92,3.065,2.373,3.065c0.64,0,1.2-0.254,1.586-0.748c0.278-0.362,0.388-0.667,0.493-1.401h0.641
			c-0.094,1.002-0.228,1.417-0.707,1.946c-0.546,0.643-1.294,0.935-2.308,0.935c-2.067,0-3.479-1.374-3.479-3.402
			c0-2.091,1.494-3.567,3.559-3.567c1.599,0,2.839,0.915,2.839,2.103c0,0.616-0.36,1.027-0.922,1.027
			c-0.466,0-0.878-0.386-0.878-0.865c0-0.439,0.269-0.718,0.799-0.891C234.036,7.742,233.981,7.677,233.955,7.635"/>
		<path fill="#FFFFFF" d="M238.436,8.366c0,0.443-0.373,0.79-0.84,0.79c-0.479,0-0.881-0.413-0.881-0.931
			c0-0.989,1.36-1.737,3.133-1.737c1.798,0,2.732,0.789,2.732,2.28v2.65c0,0.615,0,0.789,0.054,0.906
			c0.039,0.162,0.2,0.31,0.348,0.31c0.25,0,0.386-0.427,0.412-1.269c0-0.146,0-0.347,0.013-0.637h0.692
			c0.015,0.149,0.015,0.277,0.015,0.413c0,0.308-0.015,0.596-0.055,0.881c-0.092,0.958-0.521,1.382-1.358,1.382
			c-0.44,0-0.852-0.161-1.082-0.438c-0.143-0.159-0.197-0.308-0.303-0.693c-0.255,0.346-0.361,0.412-0.773,0.652
			c-0.602,0.345-1.215,0.507-1.882,0.507c-1.318,0-2.169-0.721-2.169-1.827c0-0.305,0.078-0.587,0.199-0.826
			c0.28-0.452,0.758-0.692,1.84-0.891c0.985-0.188,1.558-0.295,1.918-0.401c0.598-0.173,0.827-0.466,0.827-1.025
			c0-0.812-0.721-1.319-1.892-1.319c-0.147,0-0.322,0.011-0.496,0.039c-0.478,0.082-0.637,0.122-1.066,0.374
			C238.262,7.836,238.436,8.049,238.436,8.366 M241.233,9.846c-0.531,0.2-0.639,0.226-1.399,0.401
			c-1.546,0.358-1.918,0.629-1.918,1.332c0,0.694,0.521,1.119,1.332,1.119c0.48,0,1.065-0.228,1.455-0.585
			c0.386-0.36,0.531-0.799,0.531-1.547V9.846z"/>
		<path fill="#FFFFFF" d="M121.08,20.606c0-0.412,0-0.454-0.147-0.56c-0.131-0.107-0.264-0.117-0.73-0.117h-0.746v-0.777h2.97v8.155
			v0.346c0.012,0.082,0.043,0.163,0.106,0.213c0.082,0.108,0.188,0.124,0.521,0.124h0.601v0.773h-2.575v-0.921
			c-0.797,0.773-1.384,1.055-2.238,1.055c-0.758,0-1.613-0.333-2.186-0.866c-0.598-0.55-0.933-1.427-0.933-2.48
			c0-2,1.321-3.463,3.119-3.463c0.402,0,0.788,0.079,1.147,0.224c0.413,0.174,0.626,0.294,1.091,0.721V20.606z M117.071,25.457
			v0.132c0,1.561,0.824,2.6,2.037,2.6c1.321,0,2.067-1.011,2.067-2.746c0-1.199-0.349-1.972-1.107-2.397
			c-0.293-0.176-0.639-0.283-0.985-0.283C117.91,22.763,117.122,23.817,117.071,25.457"/>
		<path fill="#FFFFFF" d="M126.284,25.617c0.012,0.855,0.119,1.213,0.453,1.69c0.412,0.616,1.147,0.973,1.944,0.973
			c1.12,0,1.839-0.599,2.186-1.835h0.721c-0.187,0.862-0.348,1.208-0.747,1.621c-0.547,0.561-1.438,0.896-2.423,0.896
			c-2.094,0-3.519-1.374-3.519-3.388c0-2.091,1.479-3.585,3.519-3.585c1.024,0,1.931,0.414,2.531,1.163
			c0.495,0.626,0.652,1.186,0.707,2.464H126.284z M126.35,24.776h3.943c-0.063-0.733-0.133-1.025-0.346-1.369
			c-0.333-0.51-0.879-0.791-1.561-0.791c-0.597,0-1.078,0.23-1.464,0.656C126.563,23.671,126.444,23.992,126.35,24.776"/>
		<path fill="#FFFFFF" d="M137.339,28.003h0.464c0.467,0,0.575-0.013,0.709-0.122c0.13-0.08,0.16-0.2,0.16-0.574l0.012-0.639v-6.062
			c0-0.372-0.029-0.48-0.121-0.571c-0.106-0.096-0.239-0.124-0.641-0.124h-0.584v-0.758h2.691v8.155
			c0,0.375,0.013,0.456,0.118,0.574c0.095,0.093,0.188,0.122,0.549,0.122h0.584v0.76h-3.942V28.003z"/>
		<path fill="#FFFFFF" d="M144.431,23.924c0,0.44-0.373,0.787-0.84,0.787c-0.479,0-0.881-0.413-0.881-0.931
			c0-0.988,1.36-1.735,3.134-1.735c1.8,0,2.731,0.787,2.731,2.278v2.652c0,0.616,0,0.789,0.054,0.907
			c0.04,0.16,0.2,0.308,0.348,0.308c0.25,0,0.386-0.426,0.412-1.269c0-0.145,0-0.346,0.012-0.637h0.692
			c0.015,0.149,0.015,0.279,0.015,0.413c0,0.309-0.015,0.598-0.055,0.882c-0.091,0.958-0.52,1.383-1.357,1.383
			c-0.44,0-0.852-0.161-1.082-0.438c-0.143-0.161-0.196-0.308-0.303-0.692c-0.255,0.345-0.362,0.412-0.774,0.651
			c-0.599,0.347-1.215,0.505-1.881,0.505c-1.318,0-2.17-0.718-2.17-1.824c0-0.305,0.079-0.589,0.2-0.829
			c0.279-0.449,0.758-0.689,1.84-0.891c0.985-0.188,1.558-0.292,1.917-0.399c0.599-0.172,0.828-0.467,0.828-1.028
			c0-0.809-0.721-1.318-1.893-1.318c-0.147,0-0.322,0.013-0.494,0.04c-0.479,0.082-0.638,0.122-1.066,0.373
			C144.258,23.391,144.431,23.605,144.431,23.924 M147.229,25.402c-0.531,0.2-0.639,0.228-1.4,0.403
			c-1.546,0.358-1.918,0.627-1.918,1.332c0,0.694,0.521,1.117,1.332,1.117c0.48,0,1.064-0.227,1.455-0.585
			c0.386-0.361,0.531-0.799,0.531-1.544V25.402z"/>
		<path fill="#FFFFFF" d="M156.657,22.326h0.666v2.252h-0.681c-0.188-0.585-0.334-0.812-0.691-1.119
			c-0.533-0.439-1.161-0.678-1.868-0.678c-0.919,0-1.558,0.373-1.558,0.944c0,0.119,0.055,0.254,0.16,0.386
			c0.237,0.281,0.73,0.441,1.918,0.6l0.92,0.117c1.452,0.202,2.172,0.871,2.172,2.004c0,1.236-1.107,2.116-2.707,2.116
			c-0.386,0-0.796-0.051-1.199-0.173c-0.613-0.172-0.867-0.306-1.413-0.773l-0.279,0.762h-0.651v-2.642h0.637
			c0.173,0.585,0.281,0.829,0.573,1.146c0.521,0.561,1.427,0.932,2.279,0.932c0.976,0,1.627-0.423,1.627-1.063
			c0-0.589-0.479-0.893-1.585-1.04l-0.909-0.124c-0.679-0.076-1.396-0.264-1.812-0.477c-0.503-0.281-0.84-0.852-0.84-1.478
			c0-1.172,1.04-2.014,2.522-2.014c0.306,0,0.598,0.026,0.933,0.108c0.625,0.131,0.892,0.28,1.543,0.774L156.657,22.326z"/>
		<path fill="#FFFFFF" d="M165.671,23.924c0,0.44-0.373,0.787-0.84,0.787c-0.479,0-0.882-0.413-0.882-0.931
			c0-0.988,1.36-1.735,3.134-1.735c1.797,0,2.731,0.787,2.731,2.278v2.652c0,0.616,0,0.789,0.053,0.907
			c0.041,0.16,0.201,0.308,0.349,0.308c0.25,0,0.387-0.426,0.413-1.269c0-0.145,0-0.346,0.012-0.637h0.691
			c0.016,0.149,0.016,0.279,0.016,0.413c0,0.309-0.016,0.598-0.056,0.882c-0.091,0.958-0.521,1.383-1.357,1.383
			c-0.44,0-0.853-0.161-1.083-0.438c-0.142-0.161-0.198-0.308-0.303-0.692c-0.255,0.345-0.36,0.412-0.773,0.651
			c-0.603,0.347-1.214,0.505-1.882,0.505c-1.317,0-2.17-0.718-2.17-1.824c0-0.305,0.08-0.589,0.2-0.829
			c0.279-0.449,0.757-0.689,1.84-0.891c0.985-0.188,1.558-0.292,1.918-0.399c0.598-0.172,0.827-0.467,0.827-1.028
			c0-0.809-0.721-1.318-1.893-1.318c-0.147,0-0.321,0.013-0.494,0.04c-0.479,0.082-0.637,0.122-1.066,0.373
			C165.499,23.391,165.671,23.605,165.671,23.924 M168.469,25.402c-0.531,0.2-0.64,0.228-1.4,0.403
			c-1.545,0.358-1.918,0.627-1.918,1.332c0,0.694,0.521,1.117,1.333,1.117c0.48,0,1.064-0.227,1.455-0.585
			c0.385-0.361,0.531-0.799,0.531-1.544V25.402z"/>
		<path fill="#FFFFFF" d="M172.396,28.003h0.743c0.308,0,0.387-0.013,0.496-0.122c0.158-0.131,0.2-0.253,0.2-0.574v-0.598v-3.078
			c0-0.399-0.014-0.454-0.121-0.572c-0.094-0.095-0.201-0.122-0.576-0.122h-0.73v-0.707h2.772v0.868
			c0.479-0.536,0.703-0.707,1.212-0.921c0.372-0.158,0.773-0.24,1.146-0.24c0.36,0,0.718,0.082,1.051,0.214
			c0.534,0.225,0.733,0.44,1.04,1.067c0.175-0.188,0.348-0.36,0.494-0.495c0.572-0.546,1.251-0.85,1.973-0.85
			c0.733,0,1.533,0.345,1.918,0.837c0.291,0.388,0.451,1.055,0.451,1.825v2.771c0,0.589,0.094,0.696,0.536,0.696h0.731v0.76h-3.758
			v-0.76h0.761c0.212,0,0.264-0.028,0.319-0.122c0.066-0.104,0.08-0.2,0.08-0.574v-2.742c0-0.67-0.042-0.91-0.254-1.2
			c-0.24-0.388-0.666-0.587-1.146-0.587c-0.266,0-0.571,0.081-0.826,0.199c-0.213,0.107-0.412,0.255-0.585,0.443
			c-0.388,0.412-0.519,0.771-0.519,1.452v2.435c0,0.614,0.036,0.696,0.386,0.696h0.732v0.76h-3.597v-0.76h0.731
			c0.347,0,0.414-0.106,0.414-0.696v-2.649c0-0.677-0.055-0.907-0.255-1.226c-0.237-0.4-0.677-0.641-1.145-0.641
			c-0.506,0-1.012,0.268-1.4,0.72c-0.359,0.454-0.491,0.828-0.491,1.518v2.278c0,0.601,0.036,0.696,0.373,0.696h0.717v0.76h-3.875
			V28.003z"/>
		<path fill="#FFFFFF" d="M188.367,25.617c0.012,0.853,0.118,1.213,0.452,1.69c0.413,0.614,1.146,0.973,1.945,0.973
			c1.12,0,1.84-0.599,2.186-1.835h0.72c-0.187,0.862-0.348,1.208-0.748,1.621c-0.546,0.561-1.438,0.895-2.423,0.895
			c-2.093,0-3.518-1.37-3.518-3.386c0-2.091,1.476-3.585,3.518-3.585c1.023,0,1.931,0.416,2.528,1.163
			c0.498,0.626,0.654,1.186,0.71,2.464H188.367z M188.433,24.776h3.944c-0.066-0.733-0.133-1.025-0.346-1.371
			c-0.334-0.508-0.879-0.789-1.561-0.789c-0.597,0-1.079,0.23-1.465,0.656C188.646,23.671,188.526,23.992,188.433,24.776
			 M191.298,19.274l0.614,0.796l-2.293,1.455l-0.358-0.533L191.298,19.274z"/>
		<path fill="#FFFFFF" d="M194.889,22.231h2.703v1.041c0.136-0.173,0.243-0.321,0.35-0.441c0.479-0.6,0.918-0.841,1.492-0.841
			c0.786,0,1.396,0.521,1.396,1.201c0,0.521-0.343,0.893-0.798,0.893c-0.439,0-0.772-0.332-0.772-0.773
			c0-0.278,0.095-0.45,0.388-0.693c-0.148-0.024-0.269-0.024-0.361-0.024c-0.228,0-0.442,0.095-0.708,0.295
			c-0.691,0.545-0.986,1.279-0.986,2.491v1.93c0,0.375,0.014,0.456,0.148,0.574c0.119,0.093,0.24,0.122,0.692,0.122h0.749v0.76
			h-4.266v-0.76h0.679c0.559,0,0.666-0.106,0.666-0.625v-0.071l-0.025-0.449v-3.202v-0.333c-0.012-0.079-0.041-0.146-0.095-0.224
			c-0.054-0.053-0.132-0.08-0.213-0.095h-0.401h-0.638V22.231z"/>
		<path fill="#FFFFFF" d="M201.448,28.003h0.744c0.508,0,0.615-0.106,0.615-0.625V27.31l-0.013-0.441v-3.2v-0.347
			c0-0.239-0.148-0.317-0.521-0.317h-0.731v-0.773h2.583v5.077c0,0.427,0.026,0.453,0.081,0.571
			c0.052,0.095,0.134,0.122,0.373,0.122h0.719v0.758h-3.85V28.003z M203.272,18.964c0.562,0,0.997,0.428,0.997,0.978
			c0,0.53-0.423,0.987-0.957,0.987c-0.53,0-0.974-0.458-0.974-1.003C202.339,19.392,202.764,18.964,203.272,18.964"/>
		<path fill="#FFFFFF" d="M211.792,23.19c-0.279-0.306-0.852-0.494-1.479-0.494c-1.491,0-2.373,0.935-2.373,2.506
			c0,1.879,0.92,3.068,2.373,3.068c0.64,0,1.2-0.254,1.585-0.749c0.279-0.361,0.389-0.666,0.495-1.4h0.638
			c-0.092,1-0.227,1.417-0.706,1.946c-0.546,0.642-1.293,0.932-2.307,0.932c-2.065,0-3.478-1.372-3.478-3.398
			c0-2.092,1.493-3.569,3.559-3.569c1.599,0,2.839,0.916,2.839,2.104c0,0.615-0.362,1.027-0.922,1.027
			c-0.467,0-0.878-0.388-0.878-0.869c0-0.438,0.269-0.718,0.8-0.891C211.874,23.296,211.818,23.232,211.792,23.19"/>
		<path fill="#FFFFFF" d="M216.275,23.924c0,0.44-0.373,0.787-0.84,0.787c-0.479,0-0.882-0.413-0.882-0.931
			c0-0.988,1.361-1.735,3.133-1.735c1.8,0,2.731,0.787,2.731,2.278v2.652c0,0.616,0,0.789,0.056,0.907
			c0.04,0.16,0.198,0.308,0.347,0.308c0.25,0,0.385-0.426,0.413-1.269c0-0.145,0-0.346,0.013-0.637h0.69
			c0.015,0.149,0.015,0.279,0.015,0.413c0,0.309-0.015,0.598-0.053,0.882c-0.091,0.958-0.521,1.383-1.358,1.383
			c-0.439,0-0.852-0.161-1.082-0.438c-0.143-0.161-0.197-0.308-0.304-0.692c-0.255,0.345-0.36,0.412-0.773,0.651
			c-0.599,0.347-1.214,0.505-1.881,0.505c-1.318,0-2.17-0.718-2.17-1.824c0-0.305,0.079-0.589,0.2-0.829
			c0.279-0.449,0.758-0.689,1.84-0.891c0.985-0.188,1.558-0.292,1.919-0.399c0.597-0.172,0.826-0.467,0.826-1.028
			c0-0.809-0.721-1.318-1.894-1.318c-0.146,0-0.32,0.013-0.494,0.04c-0.479,0.082-0.637,0.122-1.066,0.373
			C216.102,23.391,216.275,23.605,216.275,23.924 M219.072,25.402c-0.53,0.2-0.64,0.228-1.4,0.403
			c-1.546,0.358-1.918,0.627-1.918,1.332c0,0.694,0.521,1.117,1.333,1.117c0.48,0,1.064-0.227,1.456-0.585
			c0.385-0.361,0.53-0.799,0.53-1.544V25.402z"/>
		<path fill="#FFFFFF" d="M228.5,22.326h0.667v2.252h-0.682c-0.188-0.585-0.332-0.812-0.694-1.119
			c-0.531-0.439-1.157-0.678-1.863-0.678c-0.919,0-1.559,0.373-1.559,0.944c0,0.119,0.055,0.254,0.16,0.386
			c0.238,0.281,0.731,0.441,1.919,0.6l0.918,0.117c1.453,0.202,2.172,0.871,2.172,2.004c0,1.236-1.105,2.116-2.705,2.116
			c-0.386,0-0.799-0.051-1.201-0.173c-0.612-0.172-0.866-0.306-1.412-0.773l-0.279,0.762h-0.652v-2.642h0.637
			c0.172,0.585,0.282,0.829,0.573,1.146c0.521,0.561,1.428,0.932,2.278,0.932c0.976,0,1.629-0.423,1.629-1.063
			c0-0.589-0.48-0.893-1.586-1.04l-0.908-0.124c-0.679-0.076-1.397-0.264-1.813-0.477c-0.504-0.281-0.838-0.852-0.838-1.478
			c0-1.172,1.039-2.014,2.52-2.014c0.307,0,0.599,0.026,0.934,0.108c0.625,0.131,0.892,0.28,1.542,0.774L228.5,22.326z"/>
		<path fill="#FFFFFF" d="M232.101,27.043c0.521,0,0.933,0.423,0.933,0.944c0,0.523-0.412,0.946-0.945,0.946
			c-0.506,0-0.907-0.413-0.907-0.946C231.182,27.482,231.582,27.043,232.101,27.043"/>
		<path fill="#FFFFFF" d="M258.806,9.805c0,2.187-1.816,3.973-4.058,3.973c-2.245,0-4.061-1.786-4.061-3.973
			c0-2.185,1.816-3.975,4.061-3.975C256.99,5.83,258.806,7.62,258.806,9.805 M251.652,9.805c0,1.817,1.418,3.266,3.096,3.266
			c1.702,0,3.092-1.449,3.092-3.266c0-1.842-1.391-3.292-3.092-3.292C253.07,6.512,251.652,7.962,251.652,9.805 M253.328,8.896
			c0-0.396-0.086-0.594-0.369-0.625h-0.145c-0.054-0.112-0.054-0.309,0.058-0.339c0.71-0.027,1.304-0.058,1.875-0.058
			c0.738,0,1.702,0.141,1.702,1.053c0,0.453-0.341,0.766-0.625,0.877c-0.058,0.028-0.058,0.088,0,0.228
			c0.34,0.654,0.625,1.08,0.852,1.246c0.141,0.088,0.197,0.145,0.313,0.174c0.054,0,0.054,0.197,0,0.228
			c-0.173,0.026-0.313,0.026-0.484,0.026c-0.539,0-0.936-0.198-1.25-0.652l-0.481-0.794c-0.06-0.114-0.171-0.171-0.285-0.171
			c-0.115,0-0.142,0.084-0.142,0.143v0.455c0,0.452,0,0.592,0.399,0.654l0.112,0.026c0.057,0.028,0.057,0.283,0,0.313
			c-0.341,0-0.625-0.03-1.023-0.03c-0.367,0-0.681,0.03-0.964,0.03c-0.112-0.03-0.112-0.285-0.058-0.313l0.145-0.026
			c0.369-0.088,0.369-0.172,0.369-0.654V8.896z M254.348,9.496c0,0.224,0.027,0.224,0.341,0.224c0.458,0,0.567-0.396,0.567-0.625
			c0-0.51-0.227-0.792-0.541-0.792c-0.34,0-0.367,0.055-0.367,0.254V9.496z"/>
	</g>
</g>
</svg>
